<svg xmlns="http://www.w3.org/2000/svg" viewBox="0 0 512.001 512.001">
  <path fill="#ff8095" d="M414.285 0H97.718C73.132 0 53.202 19.931 53.202 44.516v388.329H458.8V44.516C458.8 19.931 438.87 0 414.285 0z"/>
  <path fill="#ffbfca" d="M132.357 0H97.718C73.132 0 53.202 19.931 53.202 44.516v388.329h79.156V0h-.001z"/>
  <path fill="#d9576d" d="M132.357 353.69c-43.716 0-79.156 35.439-79.156 79.156 0 43.716 35.439 79.156 79.156 79.156h290.407c19.903 0 36.036-16.134 36.036-36.036V353.69H132.357z"/>
  <path fill="#fff9f2" d="M132.357 465.829c-18.187 0-32.984-14.796-32.984-32.984 0-18.187 14.797-32.984 32.984-32.984H458.8v65.967H132.357v.001z"/>
  <path fill="#333" d="M458.8 399.861H132.357c-18.187 0-32.984 14.796-32.984 32.983H458.8v-32.983z" opacity=".15"/>
</svg>
