<svg xmlns="http://www.w3.org/2000/svg" viewBox="0 0 511.998 511.998">
  <g fill="#80c56e">
    <path d="M394.086 55.784c-27.475-15.661-62.444-6.085-78.105 21.39-18.425 32.322-20.133 80.706-18.839 112.34-8.394-2.393-17.255-3.675-26.417-3.675-8.484 0-16.709 1.104-24.546 3.167 2.347-40.505 2.268-109.696-20.556-151.242-19.359-35.241-63.621-48.116-98.862-28.756-35.24 19.357-48.115 63.619-28.756 98.86 23.872 43.456 79.081 78.744 114.173 97.851-22.866 17.578-37.608 45.202-37.608 76.273 0 53.105 43.05 162.054 96.155 162.054s96.155-108.949 96.155-162.054c0-30.907-14.585-58.404-37.244-75.995 28.282-15.803 68.858-42.317 85.84-72.109 15.661-27.474 6.085-62.443-21.39-78.104z"/>
    <path d="M297.142 189.513c-8.394-2.393-17.255-3.675-26.417-3.675-8.484 0-16.709 1.104-24.546 3.167-18.492 4.839-34.002 16.715-34.002 16.715-22.866 17.578-37.608 45.202-37.608 76.273 0 53.105 43.05 162.054 96.155 162.054s96.155-108.949 96.155-162.054c0-30.907-14.585-58.404-37.244-75.995-22.795-15.288-32.493-16.485-32.493-16.485z"/>
  </g>
  <g fill="#66ad66">
    <path d="M234.169 57.428c-2.652-7.01-5.144-12.957-7.315-17.309-.408-.789-.807-1.587-1.23-2.357-.585-1.065-1.195-2.107-1.824-3.131-.21-.342-.435-.67-.65-1.007-.429-.672-.857-1.345-1.304-1.999-.27-.394-.554-.775-.83-1.163-.412-.577-.822-1.155-1.248-1.716-.308-.406-.628-.8-.943-1.198-.414-.522-.827-1.045-1.253-1.553-.338-.403-.685-.796-1.03-1.19-.422-.482-.846-.963-1.279-1.432-.364-.394-.735-.779-1.106-1.163-.432-.448-.868-.892-1.31-1.327-.388-.381-.78-.756-1.175-1.127-.442-.416-.889-.826-1.341-1.229-.411-.367-.825-.73-1.243-1.087-.45-.384-.905-.759-1.362-1.131-.435-.353-.872-.704-1.314-1.047-.454-.352-.915-.693-1.377-1.033-.46-.339-.919-.678-1.386-1.005-.454-.318-.915-.624-1.376-.931-.488-.326-.975-.654-1.471-.967-.444-.281-.895-.547-1.344-.818-.525-.316-1.047-.637-1.579-.939-.409-.233-.826-.45-1.239-.674-.584-.317-1.165-.64-1.756-.941-.282-.143-.569-.273-.853-.412-2.549-1.254-5.163-2.364-7.834-3.311-.129-.046-.255-.097-.384-.142-.8-.279-1.607-.533-2.416-.783-.255-.079-.507-.165-.763-.242-.776-.231-1.559-.441-2.342-.646-.291-.077-.581-.159-.873-.232-.775-.193-1.555-.366-2.336-.534-.304-.065-.606-.134-.911-.195-.783-.158-1.57-.298-2.358-.43-.303-.051-.606-.103-.91-.15-.799-.123-1.6-.231-2.404-.328-.292-.035-.583-.07-.876-.102-.821-.089-1.643-.164-2.468-.226-.271-.02-.542-.038-.814-.055-.849-.054-1.698-.094-2.55-.118-.24-.007-.48-.01-.72-.014-.884-.016-1.77-.02-2.656-.004-.193.004-.386.012-.578.017-.936.025-1.872.062-2.809.123-.112.007-.223.018-.335.026-7.579.531-15.166 2.255-22.481 5.263 13.582 5.555 75.276 49.536 97.48 188.822 4.418-2.031 9.336-3.926 14.488-5.274 2.005-34.632 2.225-90.215-12.012-131.579zM329.636 205.998c-22.796-15.288-32.494-16.485-32.494-16.485-8.394-2.393-17.255-3.675-26.417-3.675-.89 0-1.775.019-2.658.043 2.695 1.724 5.629 3.695 8.831 5.97 22.659 18.636 37.244 47.768 37.244 80.511 0 46.719-29.688 134.228-70.166 162.569 8.492 5.778 17.466 9.116 26.749 9.116 53.105 0 96.155-108.949 96.155-162.054 0-30.907-14.585-58.404-37.244-75.995z"/>
    <path d="M250.631 438.891c.407.208.814.41 1.223.606-.409-.197-.817-.399-1.223-.606zM248.89 437.965c.425.236.852.464 1.28.687-.427-.224-.854-.451-1.28-.687zM258.358 442.082c-.851-.268-1.698-.564-2.541-.884.843.32 1.69.616 2.541.884zM243.976 434.931c21.02-14.717 39.127-45.39 51.682-78.02-16.734 28.58-38.349 50.114-61.955 50.114-6.863 0-13.557-1.832-20.013-5.116 10.259 15.763 22.078 28.665 34.883 35.877-1.546-.872-3.08-1.823-4.597-2.855zM254.127 440.52c.4.169.799.337 1.2.494-.401-.157-.801-.325-1.2-.494zM259.706 442.482c-.32-.09-.64-.176-.959-.273.318.097.639.183.959.273zM252.379 439.744c.399.186.797.369 1.198.543-.401-.174-.799-.357-1.198-.543zM261.481 442.942c-.3-.071-.601-.14-.9-.218.3.078.6.147.9.218zM268.85 443.998c-.212-.01-.423-.029-.635-.042.212.014.423.032.635.042zM394.086 55.784c-3.517-2.005-7.158-3.59-10.865-4.783 4.732 14.746 15.134 77.499-70.622 144.716 4.568 2.397 10.211 5.704 17.037 10.281 28.282-15.804 68.858-42.317 85.84-72.109 15.661-27.475 6.085-62.444-21.39-78.105zM266.986 443.861c-.254-.024-.508-.055-.762-.085.253.03.507.061.762.085zM263.295 443.33c-.286-.054-.572-.11-.858-.17.285.06.571.115.858.17zM265.133 443.638c-.273-.039-.547-.082-.819-.127.273.045.546.088.819.127z"/>
  </g>
  <path fill="#fec37d" d="M353.927 511.998H196.912c-8.826 0-16.817-6.663-18.597-15.609l-27.113-124.144h248.436l-27.113 124.144c-1.781 8.946-9.772 15.609-18.598 15.609z"/>
  <path fill="#f9ae5d" d="M347.098 372.245l-27.113 124.144c-1.78 8.946-9.771 15.609-18.597 15.609h52.539c8.825 0 16.817-6.663 18.597-15.609l27.113-124.144h-52.539z"/>
  <path fill="#f2a559" d="M412.608 392.136H138.231c-2.778 0-5.031-2.252-5.031-5.031v-19.218c0-2.778 2.252-5.031 5.031-5.031h274.376c2.778 0 5.031 2.252 5.031 5.031v19.218c.001 2.778-2.252 5.031-5.03 5.031z"/>
  <path fill="#ea8f3d" d="M412.608 362.856h-47.325v29.28h47.325c2.779 0 5.031-2.252 5.031-5.031v-19.218c-.001-2.779-2.253-5.031-5.031-5.031z"/>
  <g fill="#4d984e">
    <path d="M220.335 243.731c-1.106-4.122-5.344-6.566-9.465-5.46-4.121 1.106-6.566 5.344-5.46 9.465l2.109 7.86c.926 3.451 4.047 5.726 7.457 5.726.663 0 1.337-.086 2.008-.266 4.121-1.106 6.566-5.344 5.46-9.465l-2.109-7.86zM220.335 140.332c-1.105-4.122-5.341-6.566-9.465-5.46-4.121 1.106-6.566 5.343-5.46 9.465l2.109 7.861c.926 3.451 4.047 5.726 7.457 5.726.663 0 1.337-.086 2.008-.266 4.121-1.106 6.566-5.343 5.46-9.465l-2.109-7.861zM347.784 140.333c-1.105-4.121-5.341-6.562-9.465-5.461-4.122 1.106-6.566 5.343-5.461 9.465l2.109 7.861c.926 3.451 4.047 5.726 7.458 5.726.663 0 1.336-.086 2.007-.266 4.122-1.105 6.566-5.343 5.461-9.464l-2.109-7.861zM203.606 78.026l-2.109-7.86c-1.105-4.122-5.344-6.565-9.464-5.46-4.121 1.106-6.566 5.343-5.46 9.464l2.109 7.86c.926 3.451 4.047 5.726 7.457 5.726.663 0 1.337-.086 2.007-.266 4.121-1.106 6.566-5.343 5.46-9.464zM333.912 100.175c.927 3.451 4.047 5.726 7.458 5.726.663 0 1.337-.086 2.007-.266 4.122-1.106 6.566-5.343 5.461-9.464l-2.109-7.86c-1.107-4.122-5.347-6.565-9.465-5.46-4.122 1.106-6.566 5.343-5.461 9.464l2.109 7.86zM136.417 74.095c-1.106-4.122-5.345-6.566-9.465-5.46-4.121 1.106-6.566 5.344-5.46 9.465l2.109 7.86c.926 3.451 4.047 5.726 7.457 5.726.663 0 1.337-.086 2.008-.266 4.121-1.106 6.566-5.344 5.46-9.465l-2.109-7.86zM270.455 280.719c-1.105-4.122-5.344-6.566-9.464-5.46-4.121 1.106-6.566 5.343-5.46 9.464l2.109 7.86c.926 3.451 4.047 5.726 7.457 5.726.663 0 1.337-.086 2.007-.266 4.121-1.106 6.566-5.343 5.46-9.464l-2.109-7.86zM243.71 329.359c-1.106-4.122-5.345-6.563-9.465-5.461-4.121 1.106-6.566 5.343-5.46 9.465l2.108 7.861c.926 3.451 4.047 5.726 7.458 5.726.663 0 1.337-.086 2.007-.266 4.121-1.105 6.566-5.343 5.46-9.464l-2.108-7.861zM316.854 235.872c-1.107-4.122-5.346-6.564-9.465-5.46-4.122 1.106-6.566 5.343-5.461 9.464l2.109 7.86c.927 3.451 4.047 5.726 7.458 5.726.663 0 1.337-.086 2.007-.266 4.122-1.106 6.566-5.343 5.461-9.464l-2.109-7.86zM259.825 237.249c3.013 0 5.877-1.774 7.122-4.725l3.164-7.498c1.659-3.931-.184-8.463-4.115-10.122s-8.463.184-10.122 4.115l-3.164 7.498c-1.659 3.931.184 8.463 4.115 10.122.981.414 1.999.61 3 .61zM165.666 114.573c-3.931-1.658-8.463.184-10.122 4.115l-3.163 7.498c-1.659 3.932.184 8.464 4.115 10.122.981.414 1.998.61 3 .61 3.014 0 5.877-1.774 7.122-4.725l3.163-7.498c1.659-3.931-.183-8.464-4.115-10.122zM386.85 98.988c-3.931-1.66-8.464.183-10.123 4.115l-3.164 7.498c-1.659 3.932.183 8.464 4.115 10.123.981.414 1.999.61 3.001.61 3.013 0 5.876-1.774 7.122-4.724l3.164-7.498c1.659-3.933-.183-8.465-4.115-10.124zM165.666 26.708c-3.931-1.659-8.463.184-10.122 4.115l-3.163 7.498c-1.659 3.932.184 8.463 4.115 10.122.981.414 1.998.61 3 .61 3.014 0 5.877-1.774 7.122-4.725l3.163-7.498c1.659-3.931-.183-8.463-4.115-10.122zM303.381 313.059c-3.931-1.66-8.464.183-10.122 4.116l-3.163 7.499c-1.659 3.932.184 8.463 4.116 10.122.981.414 1.998.61 3 .61 3.013 0 5.877-1.774 7.122-4.725l3.163-7.499c1.659-3.933-.184-8.465-4.116-10.123zM336.846 280.222c-3.933-1.659-8.464.184-10.122 4.116l-3.163 7.498c-1.659 3.932.184 8.463 4.116 10.122.981.414 1.998.61 3 .61 3.013 0 5.877-1.775 7.122-4.725l3.163-7.498c1.659-3.933-.184-8.464-4.116-10.123zM210.347 299.358c-3.932-1.658-8.463.184-10.122 4.115l-3.163 7.498c-1.659 3.932.184 8.463 4.115 10.122.981.414 1.998.61 3 .61 3.014 0 5.877-1.774 7.122-4.725l3.163-7.498c1.659-3.931-.183-8.463-4.115-10.122z"/>
  </g>
  <path fill="#f2a559" d="M388.585 422.85l-39.247 24.226-32.895-20.305c-2.487-1.536-5.63-1.536-8.117 0l-32.891 20.305-32.891-20.305c-2.488-1.536-5.63-1.536-8.118 0l-32.89 20.305-39.289-24.257 4.584 20.991 30.646 18.92c2.488 1.536 5.63 1.535 8.118 0l32.89-20.305 32.891 20.305c1.244.768 2.651 1.152 4.059 1.152 1.407 0 2.814-.384 4.059-1.152l32.89-20.305 32.895 20.305c2.487 1.536 5.63 1.536 8.117 0l30.605-18.891 4.584-20.989z"/>
  <path fill="#ea8f3d" d="M388.585 422.85l-39.247 24.226-16.375-10.108-3.495 16.002 15.812 9.76c2.487 1.536 5.63 1.536 8.117 0l30.605-18.891 4.583-20.989z"/>
</svg>
