<svg xmlns="http://www.w3.org/2000/svg" viewBox="0 0 512 512">
  <path fill="#b2edff" d="M366.49 502.583c34.675-15.778 50.158-57.694 34.22-92.298-22.259-48.325-90.122-79.626-128.564-124.483-1.164-1.359-2.845-1.539-4.173-.937-1.33.598-2.307 1.978-2.058 3.75 8.217 58.501-13.191 130.103 8.332 178.76 15.411 34.841 57.091 50.952 91.859 35.38"/>
  <path fill="#59d8ff" d="M393.118 469.863l-.384.173c-34.768 15.571-76.448-.54-91.859-35.381-15.457-34.944-8.799-81.713-6.847-126.973-7.888-7.007-15.332-14.237-21.883-21.88-1.164-1.359-2.845-1.539-4.173-.937-1.33.598-2.306 1.978-2.058 3.75 8.217 58.501-13.191 130.103 8.332 178.76 15.412 34.841 57.092 50.952 91.859 35.38l.384-.173c16.843-7.664 29.106-21.516 35.491-37.68-2.81 1.829-5.729 3.535-8.862 4.961z"/>
  <path fill="#b2edff" d="M483.455 245.633c38.313-38.359 37.988-101.951-.55-140.089-53.819-53.261-159.891-61.039-233.54-101.587-2.231-1.228-4.561-.628-6.029.838-1.473 1.461-2.085 3.788-.867 6.025 40.198 73.84 47.471 179.948 100.476 234.02 37.954 38.718 101.544 39.347 140.085 1.216"/>
  <path fill="#59d8ff" d="M502.576 188.723l-.425.423c-38.541 38.13-102.131 37.502-140.085-1.216C324 149.098 309.489 83.453 289.461 22.17c-14.013-5.393-27.548-11.304-40.097-18.213-2.23-1.228-4.561-.628-6.028.838-1.474 1.461-2.084 3.788-.867 6.025 40.198 73.84 47.471 179.948 100.476 234.02 37.954 38.718 101.545 39.346 140.085 1.216l.425-.423c18.61-18.632 28.024-43.22 28.451-67.951-2.832 3.842-5.868 7.575-9.33 11.041z"/>
  <path fill="#b2edff" d="M97.087 390.033c50.005-3.175 88.645-47.46 85.239-97.452-4.758-69.816-73.537-140.038-99.811-213.16-.796-2.215-2.778-3.223-4.691-3.104-1.915.113-3.761 1.352-4.283 3.647C56.276 155.721-3.533 233.725.164 303.606c2.647 50.038 46.347 89.339 96.37 86.46"/>
  <path fill="#59d8ff" d="M145.125 362.267l-.553.033c-50.023 2.878-93.722-36.423-96.37-86.461-2.655-50.185 27.406-104.562 50.977-159.286-6.418-12.303-12.188-24.673-16.665-37.132-.796-2.215-2.777-3.223-4.691-3.104-1.915.112-3.76 1.352-4.284 3.647C56.276 155.721-3.533 233.725.164 303.606c2.648 50.038 46.347 89.339 96.37 86.46l.553-.033c24.289-1.542 45.843-12.834 61.254-29.717-4.312.931-8.697 1.664-13.216 1.951z"/>
</svg>
