<svg xmlns="http://www.w3.org/2000/svg" width="512" height="512" viewBox="0 0 58 58">
  <g fill="none" fill-rule="nonzero">
    <path fill="#3f5c6c" d="M35.65 16.3L30 8.67V6c0-.55228475-.4477153-1-1-1s-1 .44771525-1 1v2.67l-5.7 7.69c-.1580723.2134045-.2247649.480922-.1853699.7435555s.1816418.49881.3953699.6564445c.1730962.1298221.3836298.2.6.2.3165273-.0023498.6132525-.1544214.8-.41L29 10.68l5 6.81c.3286094.4445892.9554108.5386094 1.4.21.4445892-.3286095.5386094-.9554108.21-1.4z"/>
    <circle cx="29" cy="3" r="3" fill="#f29c1f"/>
    <path fill="#33907c" d="M58 25c-4.92-2.95-8.63-2.27-11.13-.82 1.4792914-2.5517966 3.5903043-4.6800283 6.13-6.18-6.89-1.48-12.33.94-14.8 5.5C36.92 15.61 40 11 40 11c-2.3854017 1.001207-4.4947992 2.5618181-6.15 4.55-2.0403826 2.4410414-3.6776823 5.19238-4.85 8.15-1.1723177-2.95762-2.8096174-5.7089586-4.85-8.15-1.6552008-1.9881819-3.7645983-3.548793-6.15-4.55 0 0 3 4.54 1.84 12.3a10.09999655 10.09999655 0 00-.72-1C16.68 19.27 12.36 16.42 5 18c2.53969566 1.4999717 4.65070858 3.6282034 6.13 6.18C8.63 22.73 4.92 22.05 0 25c4.60328762.7509053 8.47108226 3.8702171 10.18 8.21-.1665396.9200511-.22693477 1.8561763-.18 2.79.0324441 1.3524359.2305891 2.6957917.59 4a19.0000138 19.0000138 0 00.57 1.83c.0220914.2761424.2638576.4820914.54.46s.4820914-.2638576.46-.54a9.99999964 9.99999964 0 01.38-1.75c.5897919-1.5257923 1.5240812-2.8947143 2.73-4L29 37.5 42.73 36c1.2059188 1.1052857 2.1402081 2.4742077 2.73 4a10.00000159 10.00000159 0 01.47 1.75c-.0142906.1786328.0678038.3513203.215359.4530127s.3381541.1169404.5.04c.1618458-.0769404.2703504-.2343799.284641-.4130127a18.99998365 18.99998365 0 00.53-1.83c.3594109-1.3042083.5575559-2.6475641.59-4 .0304645-.9357401-.0467085-1.8718814-.23-2.79C49.5289177 28.8702171 53.3967124 25.7509053 58 25z"/>
    <path fill="#14a085" d="M21.66 26.9A14.23999129 14.23999129 0 0120 27c-1.7186937.024692-3.4230105-.3161714-5-1a6.34000178 6.34000178 0 00-.95.68c-.8203868-.9969542-1.8085615-1.8429941-2.92-2.5C9.65070858 21.6282034 7.53969566 19.4999717 5 18c7.36-1.58 11.68 1.27 14.12 4.33a10.09999655 10.09999655 0 01.72 1c.7490231 1.1118921 1.3601683 2.310677 1.82 3.57z"/>
    <path fill="#33907c" d="M14.05 26.68c-2.0166315 1.6548156-3.3866437 3.9664899-3.87 6.53C8.47108226 28.8702171 4.60328762 25.7509053 0 25c4.92-2.95 8.63-2.27 11.13-.82 1.1114385.6570059 2.0996132 1.5030458 2.92 2.5z"/>
    <path fill="#14a085" d="M53 18c-2.5396957 1.4999717-4.6507086 3.6282034-6.13 6.18-1.0935896.6617123-2.0645534 1.5074996-2.87 2.5a6.33999401 6.33999401 0 00-1-.68c-1.5769895.6838286-3.2813063 1.024692-5 1h-1c.2150716-1.2220962.6199646-2.4030342 1.2-3.5 2.47-4.56 7.91-6.98 14.8-5.5z"/>
    <path fill="#81ccb8" d="M29 23.7a41.13999598 41.13999598 0 00-1.65 4.87c-.5307251-1.0574138-1.3441748-1.9470162-2.35-2.57-1.0611761.4678529-2.1874264.7713335-3.34.9-.4576057-1.2697221-1.0688114-2.4787003-1.82-3.6C21 15.54 18 11 18 11c2.3854017 1.001207 4.4947992 2.5618181 6.15 4.55 2.0403826 2.4410414 3.6776823 5.19238 4.85 8.15z"/>
    <path fill="#14a085" d="M29 36H15.27c.8243697-.7763018 1.7412826-1.4480329 2.73-2 7-4 7-8 7-8 1.0058252.6229838 1.8192749 1.5125862 2.35 2.57 1.1848081 2.2917494 1.7534082 4.8521729 1.65 7.43z"/>
    <path fill="#14a085" d="M42.73 36H29c0-8 4-10 4-10s0 4 7 8c.9887174.5519671 1.9056303 1.2236982 2.73 2z"/>
    <path fill="#33907c" d="M38.2 23.5c-.5800354 1.0969658-.9849284 2.2779038-1.2 3.5-1.3818522-.0949642-2.7360297-.4335085-4-1 0 0-4 2-4 10 .1034082-2.5778271-.4651919-5.1382506-1.65-7.43A41.13999598 41.13999598 0 0129 23.7c1.1723177-2.95762 2.8096174-5.7089586 4.85-8.15 1.6552008-1.9881819 3.7645983-3.548793 6.15-4.55 0 0-3.08 4.61-1.8 12.5z"/>
    <path fill="#f29c1f" d="M50 36H8c-1.65685425 0-3 1.3431458-3 3v1h3v2a16.48999948 16.48999948 0 00.28 3 15.06000149 15.06000149 0 00.52 2c2.1595326 6.5644108 8.2894957 11.0005683 15.2 11h10c8.836556 0 16-7.163444 16-16v-2h3v-1c0-1.6568542-1.3431458-3-3-3z"/>
    <path fill="#f0c419" d="M53 39v1H5v-1c0-1.6568542 1.34314575-3 3-3h42c1.6568542 0 3 1.3431458 3 3z"/>
    <path fill="#e57e25" d="M28 46c0 .5522847-.4477153 1-1 1H8.8a15.06000149 15.06000149 0 01-.52-2H27c.5522847 0 1 .4477153 1 1zM32 47h-1c-.5522847 0-1-.4477153-1-1s.4477153-1 1-1h1c.5522847 0 1 .4477153 1 1s-.4477153 1-1 1z"/>
    <g fill="#26b99a">
      <path d="M25 26s0 4-7 8c-.9887174.5519671-1.9056303 1.2236982-2.73 2-1.2059188 1.1052857-2.1402081 2.4742077-2.73 4a10.00000159 10.00000159 0 00-.47 1.75c.0220914.2761424-.1838576.5179086-.46.54s-.5179086-.1838576-.54-.46a18.99998365 18.99998365 0 01-.53-1.83c-.3425243-1.3063077-.5238727-2.6496287-.54-4-.03046446-.9357401.0467085-1.8718814.23-2.79.4833563-2.5635101 1.8533685-4.8751844 3.87-6.53A6.34000578 6.34000578 0 0115 26c1.5769895.6838286 3.2813063 1.024692 5 1a14.23999129 14.23999129 0 001.66-.1c1.1525736-.1286665 2.2788239-.4321471 3.34-.9zM48.05 36c-.0324441 1.3524359-.2305891 2.6957917-.59 4a19.0000138 19.0000138 0 01-.57 1.83c-.0142906.1786328-.1227952.3360723-.284641.4130127-.1618459.0769404-.3524448.0616924-.5-.04S45.8757094 41.9286328 45.89 41.75a9.99999638 9.99999638 0 00-.43-1.75c-.5897919-1.5257923-1.5240812-2.8947143-2.73-4-.8243697-.7763018-1.7412826-1.4480329-2.73-2-7-4-7-8-7-8 1.2639703.5664915 2.6181478.9050358 4 1h1c1.7186937.024692 3.4230105-.3161714 5-1a6.33999401 6.33999401 0 011 .68c2.0166315 1.6548156 3.3866437 3.9664899 3.87 6.53.1665396.9200511.2269348 1.8561763.18 2.79z"/>
    </g>
  </g>
</svg>
