<svg xmlns="http://www.w3.org/2000/svg" viewBox="0 0 512 512">
  <path fill="#a2b1b7" d="M414.942 0v150.449h-56.264L392.436 0z"/>
  <path fill="#c4d3d9" d="M347.429 0h45.011v150.449h-45.011z"/>
  <path fill="#fbcfa3" d="M255.997 19.366L39.381 178.367v63.466L438.854 512h33.758V179.74z"/>
  <path fill="#ffe2c4" d="M255.997 83.754L39.381 241.833V512h399.473V217.966z"/>
  <path fill="#ed6350" d="M505.099 182.881c4.178 3.072 6.901 8.009 6.901 13.592 0 9.322-7.557 16.879-16.879 16.879-3.738 0-7.18-1.23-9.977-3.287L256 41.877l-13.503-16.558L256 0l249.099 182.881z"/>
  <path fill="#f37c4a" d="M6.901 182.88L256 0v41.877L26.857 210.065c-2.797 2.057-6.24 3.287-9.978 3.287C7.557 213.352 0 205.795 0 196.473c0-5.585 2.723-10.521 6.901-13.593z"/>
  <path fill="#d1f1ff" d="M255.997 115.903l-57.389 45.011c-1.103 4.512-1.688 9.216-1.688 14.066 0 2.869.203 5.683.608 8.44l58.469 50.637c32.633 0 59.077-26.455 59.077-59.077s-26.444-59.077-59.077-59.077z"/>
  <g fill="#fff">
    <path d="M197.527 183.42h83.529c-1.755 28.627-12.299 50.637-25.06 50.637-29.763 0-54.384-22.01-58.469-50.637zM280.584 160.914h-81.976c6.313-25.836 29.617-45.011 57.389-45.011 11.905 0 21.897 19.175 24.587 45.011z"/>
  </g>
  <path fill="#a65a3a" d="M233.495 281.319V512h-33.759l-33.758-120.967 33.758-109.714z"/>
  <path fill="#d3754f" d="M92.835 281.319h106.901V512H92.835z"/>
  <circle cx="163.165" cy="346.022" r="8.44" fill="#aee6ff"/>
  <path fill="#fff" d="M374.154 281.319l22.505 59.077-22.505 59.077h-84.396V281.319z"/>
  <path fill="#d1f1ff" d="M374.154 281.319v45.011h-84.396v22.505h84.396v50.638h33.758V281.319z"/>
  <g fill="#d3754f">
    <path d="M416.352 399.473h-16.879V289.758H298.198v109.714h-16.879V281.319c0-4.662 3.778-8.44 8.44-8.44h118.154c4.662 0 8.44 3.778 8.44 8.44v118.154z"/>
    <path d="M289.758 317.89h118.154v16.879H289.758z"/>
  </g>
  <path fill="#f37c4a" d="M419.165 407.912h-140.66c-4.662 0-8.44-3.778-8.44-8.44s3.778-8.44 8.44-8.44h140.659c4.662 0 8.44 3.778 8.44 8.44s-3.777 8.44-8.439 8.44z"/>
  <g fill="#d3754f">
    <path d="M256 242.497c-37.229 0-67.516-30.288-67.516-67.516s30.288-67.516 67.516-67.516 67.517 30.288 67.517 67.516-30.288 67.516-67.517 67.516zm0-118.154c-27.921 0-50.637 22.716-50.637 50.637s22.716 50.637 50.637 50.637 50.637-22.716 50.637-50.637-22.716-50.637-50.637-50.637z"/>
    <path d="M198.611 152.475h114.778v16.879H198.611z"/>
  </g>
</svg>
