<svg xmlns="http://www.w3.org/2000/svg" viewBox="0 0 512 512">
  <path fill="#b0d3f0" d="M35.31 44.138h441.38c19.5 0 35.31 15.81 35.31 35.31v353.103c0 19.5-15.81 35.31-35.31 35.31H35.31c-19.5 0-35.31-15.81-35.31-35.31V79.448c0-19.5 15.81-35.31 35.31-35.31z"/>
  <path fill="#285680" d="M376.232 155.189c-3.16-2.931-7.971-3.16-11.388-.53L211.862 277.186l-21.098-24.011c-3.028-3.407-8.157-3.937-11.829-1.236L12.359 370.759H0v61.793c0 19.5 15.81 35.31 35.31 35.31h441.38c19.5 0 35.31-15.81 35.31-35.31V282.483L376.232 155.189z"/>
  <path fill="#464f5d" d="M376.232 155.189c-3.16-2.931-7.971-3.16-11.388-.53L211.862 277.186l-21.098-24.011c-3.028-3.407-8.157-3.937-11.829-1.236L12.359 370.759H512v-88.276L376.232 155.189z"/>
  <path fill="#5e5f62" d="M294.4 370.759H12.359L178.936 251.94c3.672-2.701 8.801-2.172 11.829 1.236l21.098 24.011 82.537 93.572z"/>
  <circle cx="105.931" cy="150.069" r="44.138" fill="#f29c1f"/>
</svg>
