<svg xmlns="http://www.w3.org/2000/svg" viewBox="0 0 512 512">
  <path fill="#e6646e" d="M0 512h247.742c0-145.946 118.313-264.258 264.258-264.258V0C229.23 0 0 229.23 0 512z"/>
  <path fill="#ffdc64" d="M512 247.742V41.29C252.034 41.29 41.29 252.034 41.29 512h206.452c0-145.946 118.312-264.258 264.258-264.258z"/>
  <path fill="#bee86e" d="M512 247.742V82.581C274.838 82.581 82.581 274.838 82.581 512h165.161c0-145.946 118.312-264.258 264.258-264.258z"/>
  <path fill="#00cdff" d="M512 247.742V123.871c-214.358 0-388.129 173.771-388.129 388.129h123.871c0-145.946 118.312-264.258 264.258-264.258z"/>
  <path fill="#00aaf0" d="M512 247.742v-82.581c-191.554 0-346.839 155.285-346.839 346.839h82.581c0-145.946 118.312-264.258 264.258-264.258z"/>
  <path fill="#965af0" d="M512 247.742v-41.29c-168.749 0-305.548 136.798-305.548 305.548h41.29c0-145.946 118.312-264.258 264.258-264.258z"/>
</svg>
