<svg id="Capa_1" enable-background="new 0 0 512 512" height="512" viewBox="0 0 512 512" width="512" xmlns="http://www.w3.org/2000/svg"><path d="m141.006 423.276-2.962 16.612-6.691 39.81c-2.084 12.403-12.822 21.486-25.398 21.486h-20.45c-8.534 0-15.453-6.918-15.453-15.453 0-8.534 6.918-15.453 15.453-15.453h12.132c2.513 0 4.659-1.813 5.078-4.29l4.424-26.1 3.219-18.286z" fill="#cc9e75"/><path d="m404.861 439.887 4.424 26.1c.42 2.477 2.566 4.29 5.078 4.29h12.132c8.534 0 15.453 6.918 15.453 15.453 0 8.534-6.918 15.453-15.453 15.453h-20.45c-12.577 0-23.314-9.083-25.398-21.486l-6.691-39.81-1.418-11.301 30.646 1.465z" fill="#cc9e75"/><path d="m486.245 292.056c-4.268 0-7.726-3.459-7.726-7.726v-237.457c0-7.101-5.777-12.877-12.877-12.877h-36.056c-7.101 0-12.877 5.777-12.877 12.877v34.511c0 4.267-3.459-2.575-7.726-2.575s-7.726 6.843-7.726 2.575v-34.511c0-15.621 12.709-28.33 28.33-28.33h36.056c15.621 0 28.33 12.709 28.33 28.33v237.457c-.001 4.267-3.46 7.726-7.728 7.726z" fill="#d3d3d3"/><path d="m25.755 377.561c0 34.137 27.674 61.811 61.811 61.811h336.869c34.137 0 61.811-27.674 61.811-61.811v-84.99h-460.491z" fill="#bde0f2"/><path d="m486.245 310.6v66.962c0 34.14-27.671 61.811-61.811 61.811h-30.905c34.14 0 61.811-27.671 61.811-61.811v-66.962z" fill="#7fc6dd"/><path d="m493.972 310.6h-475.944c-9.957 0-18.028-8.072-18.028-18.029 0-9.957 8.071-18.028 18.028-18.028h475.944c9.957 0 18.028 8.071 18.028 18.028 0 9.957-8.071 18.029-18.028 18.029z" fill="#83c8db"/><path d="m512 292.571c0 4.976-2.019 9.488-5.285 12.754-3.266 3.255-7.768 5.275-12.743 5.275h-30.905c4.976 0 9.478-2.019 12.743-5.275 3.266-3.266 5.285-7.778 5.285-12.754 0-9.952-8.077-18.028-18.028-18.028h30.905c9.951 0 18.028 8.077 18.028 18.028z" fill="#56a9b7"/><path d="m434.221 118.986h-50.479v-21.119c0-13.939 11.3-25.239 25.239-25.239 13.939 0 25.239 11.3 25.239 25.239v21.119z" fill="#b7b7b7"/><path d="m434.221 97.867v21.119h-30.905v-21.119c0-6.974-2.823-13.279-7.397-17.843-.752-.752-1.545-1.453-2.39-2.102 4.265-3.328 9.632-5.295 15.453-5.295 6.964 0 13.279 2.823 17.843 7.397 4.574 4.564 7.396 10.869 7.396 17.843z" fill="#a0a0a0"/><path d="m72.113 26.27c-.773 0 46.358 0 46.358 0v338.415c0 12.801-10.378 23.179-23.179 23.179-12.801 0-23.179-10.378-23.179-23.179z" fill="#fcd87e"/><path d="m118.471 26.27h46.358v338.415c0 12.801-10.378 23.179-23.179 23.179-12.801 0-23.179-10.378-23.179-23.179z" fill="#fff"/><path d="m164.829 26.27h46.358v338.415c0 12.801-10.378 23.179-23.179 23.179-12.801 0-23.179-10.378-23.179-23.179z" fill="#fcd87e"/><path d="m211.187 26.27h46.358v338.415c0 12.801-10.378 23.179-23.179 23.179-12.801 0-23.179-10.378-23.179-23.179z" fill="#fff"/><path d="m257.545 26.27h46.358v338.415c0 12.801-10.378 23.179-23.179 23.179-12.801 0-23.179-10.378-23.179-23.179z" fill="#fcd87e"/><g fill="#56a9b7"><path d="m378.076 191.099c-4.268 0-7.726-3.459-7.726-7.726v-13.393c0-4.267 3.459-7.726 7.726-7.726s7.726 3.459 7.726 7.726v13.392c.001 4.267-3.458 7.727-7.726 7.727z"/><path d="m408.982 191.099c-4.268 0-7.726-3.459-7.726-7.726v-13.393c0-4.267 3.459-7.726 7.726-7.726s7.726 3.459 7.726 7.726v13.392c0 4.267-3.458 7.727-7.726 7.727z"/><path d="m439.887 191.099c-4.268 0-7.726-3.459-7.726-7.726v-13.393c0-4.267 3.459-7.726 7.726-7.726s7.726 3.459 7.726 7.726v13.392c.001 4.267-3.458 7.727-7.726 7.727z"/><path d="m378.076 235.396c-4.268 0-7.726-3.459-7.726-7.726v-13.392c0-4.267 3.459-7.726 7.726-7.726s7.726 3.459 7.726 7.726v13.392c.001 4.267-3.458 7.726-7.726 7.726z"/><path d="m408.982 235.396c-4.268 0-7.726-3.459-7.726-7.726v-13.392c0-4.267 3.459-7.726 7.726-7.726s7.726 3.459 7.726 7.726v13.392c0 4.267-3.458 7.726-7.726 7.726z"/><path d="m439.887 235.396c-4.268 0-7.726-3.459-7.726-7.726v-13.392c0-4.267 3.459-7.726 7.726-7.726s7.726 3.459 7.726 7.726v13.392c.001 4.267-3.458 7.726-7.726 7.726z"/></g><path d="m337.434 10.817c-5.705 0-10.685 3.115-13.362 7.726h-272.673c-2.79-4.04-7.448-6.696-12.718-6.696-8.521 0-15.453 6.932-15.453 15.453s6.932 15.453 15.453 15.453c6.12 0 11.404-3.585 13.905-8.757h271.486c2.677 4.611 7.657 7.726 13.362 7.726 8.521 0 15.453-6.932 15.453-15.453s-6.932-15.452-15.453-15.452z" fill="#cc9e75"/><path d="m435.767 134.439h-53.569c-7.112 0-12.877-5.765-12.877-12.877 0-7.112 5.765-12.877 12.877-12.877h53.569c7.112 0 12.877 5.765 12.877 12.877 0 7.111-5.765 12.877-12.877 12.877z" fill="#a5a5a5"/><path d="m448.644 121.561c0 3.554-1.442 6.768-3.77 9.107-2.328 2.328-5.553 3.771-9.107 3.771h-30.905c3.554 0 6.779-1.442 9.107-3.771 2.328-2.338 3.77-5.553 3.77-9.107 0-7.108-5.769-12.877-12.877-12.877h30.905c7.108 0 12.877 5.769 12.877 12.877z" fill="#8e8e8e"/></svg>