<svg xmlns="http://www.w3.org/2000/svg" viewBox="0 0 448 448">
  <path fill="#dededd" d="M352 352c-12 0-22.352 6.688-27.824 16.48l-230-102.224C95.264 263.008 96 259.6 96 256c0-17.68-14.32-32-32-32s-32 14.32-32 32c-17.68 0-32 14.32-32 32s14.32 32 32 32c12 0 22.352-6.688 27.824-16.48L289.84 405.744C288.736 408.992 288 412.4 288 416c0 17.68 14.32 32 32 32s32-14.32 32-32c17.68 0 32-14.32 32-32s-14.32-32-32-32z"/>
  <g fill="#efeeee">
    <path d="M110.256 217.488L144 240v32h32v-32h32v32h32v-32h32v32h32v-32l33.744-22.496C346.656 211.568 352 201.568 352 190.88V128C352 57.312 294.688 0 224 0S96 57.312 96 128v62.864c0 10.704 5.344 20.704 14.256 26.624z"/>
    <path d="M416 256c0-17.68-14.32-32-32-32s-32 14.32-32 32c0 3.6.736 7.008 1.824 10.256l-230 102.224C118.352 358.688 108 352 96 352c-17.68 0-32 14.32-32 32s14.32 32 32 32c0 17.68 14.32 32 32 32s32-14.32 32-32c0-3.6-.736-7.008-1.824-10.256L388.192 303.52C393.648 313.312 404 320 416 320c17.68 0 32-14.32 32-32s-14.32-32-32-32z"/>
  </g>
  <g fill="#888">
    <path d="M224 176c8.832 0 16 14.32 16 32h-32c0-17.68 7.168-32 16-32z"/>
    <circle cx="160" cy="160.002" r="32"/>
    <circle cx="288" cy="160.002" r="32"/>
  </g>
  <path fill="#efeeee" d="M158.176 405.744L388.192 303.52"/>
  <path fill="#dededd" d="M302.816 358.976l-19.44-8.64-59.296 26.272 65.744 29.136c-1.088 3.248-1.824 6.656-1.808 10.256.016 17.664 14.368 31.984 32.032 31.968 17.68-.016 31.984-14.368 31.968-32.032 5.12 0 9.856-1.344 14.128-3.488l-91.808-40.8 28.48-12.672z"/>
</svg>
