<svg xmlns="http://www.w3.org/2000/svg" viewBox="0 0 512 512">
  <g fill="#d1f4ff">
    <path d="M181.669 383.742c-1.427 0-2.871-.371-4.194-1.145-29.468-17.403-73.048-33.266-104.411-43.516-4.339-1.411-6.702-6.073-5.282-10.411 1.411-4.339 6.048-6.726 10.411-5.282 32.145 10.5 76.927 26.823 107.685 44.984 3.927 2.323 5.226 7.387 2.911 11.315-1.539 2.603-4.297 4.055-7.12 4.055zM42.427 329.218c-.758 0-1.54-.105-2.315-.331-9.548-2.782-15.355-4.339-15.403-4.355-4.411-1.177-7.024-5.702-5.847-10.105 1.177-4.411 5.758-7.016 10.105-5.847 0 0 5.96 1.589 15.774 4.452 4.379 1.274 6.887 5.863 5.613 10.242-1.048 3.605-4.346 5.944-7.927 5.944zM75.629 189.024c-3.476 0-6.71-2.21-7.847-5.694-1.419-4.339.944-9 5.282-10.411 31.363-10.25 74.944-26.113 104.411-43.516 3.944-2.306 9-1.008 11.315 2.911 2.315 3.927 1.016 8.992-2.911 11.315-30.758 18.161-75.54 34.484-107.685 44.984-.855.282-1.718.411-2.565.411zM26.831 203.702c-3.645 0-6.984-2.435-7.968-6.129-1.177-4.403 1.435-8.927 5.847-10.105.048-.016 5.855-1.573 15.403-4.355 4.419-1.306 8.976 1.242 10.242 5.613 1.274 4.379-1.234 8.968-5.613 10.242-9.815 2.863-15.774 4.452-15.774 4.452-.71.193-1.428.282-2.137.282z"/>
    <path d="M400.018 132.729c-9.656-24.515-33.494-41.891-61.438-41.891-6.16 0-12.098.907-17.755 2.484-18.573-18.935-45.339-29.804-74.588-26.747-33.14 3.464-61.809 25.922-74.36 56.789-8.394 20.642-8.212 40.196-3.341 57.794-57.05 23.938-133.645 42.237-159.548 48.086C3.714 230.436 0 235.109 0 240.516v30.968c0 5.407 3.714 10.08 8.988 11.271 25.903 5.849 102.498 24.148 159.548 48.086-4.871 17.598-5.053 37.152 3.341 57.794 12.551 30.867 41.219 53.325 74.36 56.789 29.249 3.057 56.015-7.811 74.588-26.747 5.657 1.577 11.595 2.484 17.755 2.484 27.944 0 51.781-17.376 61.438-41.891C462.848 373.283 512 320.399 512 256c0-64.398-49.152-117.283-111.982-123.271z"/>
  </g>
  <path fill="#b2edff" d="M500.756 307.32c-2.746 5.271-6.063 10.041-10.216 14.172-16.5 16.427-46.411 24.75-88.944 24.75-.524 0-1.073-.016-1.581 0-13.565 0-25.758 8.298-30.734 20.927-6.073 15.419-22.282 24.5-39.581 19.694-11.091-3.125-23.004-.175-31.403 7.655-6.675 6.223-13.813 12.144-22.461 15.058-40.196 13.544-77.644-16.182-77.644-54.479 0-5.209.786-10.599 2.332-16.01 4.487-15.706-4.124-32.375-19.186-38.697C134.061 280.546 52.142 259.517 0 247.097v24.387c0 5.407 3.714 10.08 8.988 11.271 25.903 5.849 102.498 24.148 159.548 48.086-4.871 17.598-5.053 37.152 3.341 57.794 12.551 30.867 41.219 53.325 74.36 56.789 29.249 3.057 56.015-7.811 74.588-26.747 5.657 1.577 11.595 2.484 17.755 2.484 27.944 0 51.781-17.376 61.438-41.891 44.944-4.283 82.776-32.625 100.738-71.95z"/>
</svg>
