<svg xmlns="http://www.w3.org/2000/svg" viewBox="0 0 511.999 511.999">
  <path fill="#ffdc64" d="M282.461 88.303l-26.98-78.201c-1.835-5.318-9.355-5.318-11.19 0l-26.98 78.201-1.504.299-54.853-61.923c-3.73-4.211-10.678-1.333-10.338 4.282l5 82.573-.102 1.423-75.547-36.789c-5.058-2.463-10.376 2.855-7.913 7.913l36.789 75.547-.121.181-83.875-5.078c-5.615-.34-8.493 6.608-4.282 10.338l62.899 55.717-.042.213-79.434 27.406c-5.318 1.835-5.318 9.355 0 11.19l79.434 27.406.042.213-62.899 55.717c-4.211 3.73-1.333 10.678 4.282 10.338l83.875-5.078.121.181-36.789 75.547c-2.463 5.058 2.855 10.376 7.913 7.913l75.547-36.789.181.121-5.078 83.875c-.34 5.615 6.608 8.493 10.338 4.282l55.717-62.899.213.042 27.406 79.434c1.835 5.318 9.355 5.318 11.19 0l27.406-79.434.213-.042 55.717 62.899c3.73 4.211 10.678 1.333 10.338-4.282l-5.078-83.875 1.354.45 74.374 36.218c5.058 2.463 10.376-2.855 7.913-7.913L391.5 351.545l.852-1.275 82.573 5c5.615.34 8.493-6.608 4.282-10.338l-61.923-54.853.299-1.504 78.201-26.98c5.318-1.835 5.318-9.355 0-11.19l-78.201-26.98-.299-1.504 61.923-54.853c4.211-3.73 1.333-10.678-4.282-10.338l-82.573 5-.852-1.275 36.218-74.374c2.463-5.058-2.855-10.376-7.913-7.913l-74.374 36.218-1.275-.852 5-82.573c.34-5.615-6.608-8.493-10.338-4.282l-54.853 61.923"/>
  <circle cx="250.721" cy="254.74" r="168.27" fill="#ffc850"/>
  <path fill="#ebaf4b" d="M305.909 367.82c-92.931 0-168.267-75.335-168.267-168.267 0-32.326 9.134-62.51 24.935-88.148-48.066 29.624-80.119 82.727-80.119 143.332 0 92.931 75.335 168.267 168.267 168.267 60.605 0 113.709-32.053 143.332-80.119-25.638 15.801-55.822 24.935-88.148 24.935z"/>
  <path fill="#edebed" d="M439.994 230.361c-.103 0-.201.015-.302.015-3.094-46.906-42.017-84.023-89.706-84.023-27.388 0-51.872 12.274-68.381 31.573-5.05-1.027-10.274-1.57-15.627-1.57-35.851 0-65.976 24.216-75.105 57.161-29.469 9.021-50.906 36.426-50.906 68.85 0 39.768 32.238 72.006 72.006 72.006h228.02c39.768 0 72.006-32.239 72.006-72.006.001-39.767-32.237-72.006-72.005-72.006z"/>
  <path fill="#dbd9dc" d="M433.993 350.372H286.387c-39.731 0-73.792-31.143-74.405-70.87-.461-29.881 17.3-55.623 42.879-66.945 5.66-2.505 10.259-6.831 12.762-12.492 3.57-8.073 8.296-15.519 13.957-22.143-5.041-1.023-10.257-1.566-15.602-1.566-35.851 0-65.976 24.216-75.105 57.161-30.007 9.185-51.686 37.432-50.885 70.631.953 39.464 34.86 70.226 74.336 70.226h219.668c6.628 0 12.001-5.373 12.001-12.001.001-6.628-5.372-12.001-12-12.001z"/>
</svg>
