<svg xmlns="http://www.w3.org/2000/svg" viewBox="0 0 512.001 512.001">
  <path fill="#d2e7f7" d="M324.147 86.205V42.35H187.853v43.855c0 32.437-26.296 58.733-58.733 58.733-17.533 0-31.747 14.213-31.747 31.747v286.9c0 26.739 21.676 48.415 48.415 48.415h220.423c26.739 0 48.415-21.676 48.415-48.415v-286.9c0-17.533-14.213-31.747-31.747-31.747-32.436 0-58.732-26.296-58.732-58.733z"/>
  <path fill="#bad7f2" d="M382.88 144.938c-32.438 0-58.733-26.296-58.733-58.733V42.35h-49.392v61.691c0 32.437 26.296 58.733 58.733 58.733 17.533 0 31.747 14.213 31.747 31.747v265.446c0 16.235-13.161 29.396-29.396 29.396H145.788c-26.739 0-48.415-21.676-48.415-48.415v22.638c0 26.739 21.676 48.415 48.415 48.415h220.424c26.739 0 48.415-21.676 48.415-48.415V176.685c.001-17.534-14.213-31.747-31.747-31.747z"/>
  <path fill="#d18754" d="M355.899 89.628H156.101c-8.465 0-15.327-6.862-15.327-15.327V15.327C140.774 6.862 147.636 0 156.101 0H355.9c8.465 0 15.327 6.862 15.327 15.327v58.975c0 8.464-6.862 15.326-15.328 15.326z"/>
  <path fill="#bf7643" d="M355.899 0h-37.663v65.613c0 7.864-6.375 14.239-14.239 14.239H156.101c-8.465 0-15.327-6.862-15.327-15.327v9.776c0 8.465 6.862 15.327 15.327 15.327H355.9c8.465 0 15.327-6.862 15.327-15.327V15.327C371.227 6.862 364.365 0 355.899 0z"/>
  <path fill="#fff" d="M359.067 413.284H152.933c-10.229 0-18.522-8.292-18.522-18.522V236.538c0-10.229 8.292-18.522 18.522-18.522h206.134c10.229 0 18.522 8.292 18.522 18.522v158.225c0 10.229-8.292 18.521-18.522 18.521z"/>
  <path fill="#f4f3f2" d="M359.067 218.016h-52.909c10.229 0 18.522 8.293 18.522 18.522v158.225c0 10.229-8.292 18.522-18.522 18.522h52.909c10.229 0 18.522-8.292 18.522-18.522V236.538c0-10.229-8.293-18.522-18.522-18.522z"/>
  <path fill="#d18754" d="M327.875 394.078c-3.43 0-6.56-2.302-7.463-5.776-5.013-19.263-14.41-29.863-14.504-29.969-.177-.196-.367-.427-.523-.64-6.39-8.757-14.521-18.059-24.167-27.649-3.023-3.005-3.037-7.891-.031-10.914 3.004-3.021 7.89-3.037 10.914-.031 10.116 10.058 18.709 19.884 25.543 29.209 2.012 2.324 12.163 14.812 17.704 36.108 1.074 4.125-1.4 8.339-5.525 9.412-.65.169-1.303.25-1.948.25z"/>
  <g fill="#f2a559">
    <path d="M179.237 13.002c-4.263 0-7.718 3.455-7.718 7.718v43.261c0 4.263 3.455 7.718 7.718 7.718s7.718-3.455 7.718-7.718V20.719c-.001-4.262-3.455-7.717-7.718-7.717zM230.413 13.002c-4.263 0-7.718 3.455-7.718 7.718v43.261c0 4.263 3.455 7.718 7.718 7.718s7.718-3.455 7.718-7.718V20.719c-.001-4.262-3.456-7.717-7.718-7.717zM281.587 13.002c-4.263 0-7.717 3.455-7.717 7.718v43.261c0 4.263 3.455 7.718 7.717 7.718s7.718-3.455 7.718-7.718V20.719c0-4.262-3.455-7.717-7.718-7.717zM332.763 13.002c-4.263 0-7.718 3.455-7.718 7.718v43.261c0 4.263 3.455 7.718 7.718 7.718s7.718-3.455 7.718-7.718V20.719c0-4.262-3.455-7.717-7.718-7.717z"/>
  </g>
  <path fill="#80c56e" d="M184.119 248.185s8.787 67.642 48.921 100.681c46.483 38.265 78.58 4.278 78.58 4.278s27.187-38.029-19.296-76.294c-40.135-33.038-108.205-28.665-108.205-28.665z"/>
  <path fill="#66ad66" d="M292.324 276.851c-40.135-33.039-108.205-28.665-108.205-28.665 9.207 3.191 89.845 53.359 127.501 104.959.001-.001 27.187-38.03-19.296-76.294z"/>
</svg>
