<svg height="512pt" viewBox="0 -119 512.001 512" width="512pt" xmlns="http://www.w3.org/2000/svg"><path d="m467.730469 273h-.054688c-8.519531 0-15.425781-6.90625-15.425781-15.421875v-77.292969h30.90625v77.292969c0 8.515625-6.90625 15.421875-15.425781 15.421875zm0 0" fill="#5b545f"/><path d="m44.324219 273h-.054688c-8.519531 0-15.421875-6.90625-15.421875-15.421875v-77.292969h30.902344v77.292969c0 8.515625-6.90625 15.421875-15.425781 15.421875zm0 0" fill="#5b545f"/><path d="m484.183594 133.925781h-456.367188v-103.019531c0-17.070312 13.835938-30.90625 30.90625-30.90625h394.558594c17.066406 0 30.90625 13.835938 30.90625 30.90625v103.019531zm0 0" fill="#6d6670"/><path d="m453.28125 0h-30.90625c17.070312 0 30.90625 13.835938 30.90625 30.90625v103.019531h30.902344v-103.019531c0-17.070312-13.835938-30.90625-30.902344-30.90625zm0 0" fill="#5b545f"/><path d="m501.328125 242.09375h-490.65625c-5.894531 0-10.671875-4.777344-10.671875-10.671875v-43.917969c0-5.890625 4.777344-10.671875 10.671875-10.671875h490.65625c5.894531 0 10.671875 4.78125 10.671875 10.671875v43.917969c0 5.894531-4.777344 10.671875-10.671875 10.671875zm0 0" fill="#6d6670"/><path d="m501.613281 176.832031h-30.902343c5.734374 0 10.382812 4.910157 10.382812 10.964844v43.332031c0 6.054688-4.648438 10.964844-10.382812 10.964844h30.902343c5.738281 0 10.386719-4.910156 10.386719-10.964844v-43.332031c0-6.054687-4.648438-10.964844-10.386719-10.964844zm0 0" fill="#5b545f"/><path d="m501.613281 180.285156h-491.226562c-5.738281 0-10.386719-4.652344-10.386719-10.386718v-41.039063c0-5.738281 4.648438-10.386719 10.386719-10.386719h491.226562c5.738281 0 10.386719 4.648438 10.386719 10.386719v41.039063c0 5.734374-4.648438 10.386718-10.386719 10.386718zm0 0" fill="#edcfb2"/><path d="m501.613281 118.472656h-30.902343c5.734374 0 10.382812 4.648438 10.382812 10.386719v41.039063c0 5.734374-4.648438 10.386718-10.382812 10.386718h30.902343c5.738281 0 10.386719-4.652344 10.386719-10.386718v-41.039063c0-5.738281-4.648438-10.386719-10.386719-10.386719zm0 0" fill="#cfb49b"/><path d="m195.734375 103.019531h-87.566406c-5.6875 0-10.300781-4.613281-10.300781-10.300781v-10.304688c0-5.6875 4.613281-10.300781 10.300781-10.300781h87.566406c5.691406 0 10.300781 4.613281 10.300781 10.300781v10.304688c0 5.6875-4.609375 10.300781-10.300781 10.300781zm0 0" fill="#fe5e70"/><path d="m403.832031 103.019531h-87.566406c-5.691406 0-10.300781-4.613281-10.300781-10.300781v-10.304688c0-5.6875 4.609375-10.300781 10.300781-10.300781h87.566406c5.6875 0 10.300781 4.613281 10.300781 10.300781v10.304688c0 5.6875-4.613281 10.300781-10.300781 10.300781zm0 0" fill="#fe5e70"/><path d="m195.734375 72.113281h-30.90625c5.691406 0 10.304687 4.613281 10.304687 10.300781v10.304688c0 5.6875-4.613281 10.300781-10.304687 10.300781h30.90625c5.691406 0 10.300781-4.613281 10.300781-10.300781v-10.304688c0-5.6875-4.609375-10.300781-10.300781-10.300781zm0 0" fill="#f54558"/><path d="m403.832031 72.113281h-30.90625c5.6875 0 10.300781 4.613281 10.300781 10.300781v10.304688c0 5.6875-4.609374 10.300781-10.300781 10.300781h30.90625c5.6875 0 10.300781-4.613281 10.300781-10.300781v-10.304688c0-5.6875-4.613281-10.300781-10.300781-10.300781zm0 0" fill="#f54558"/><path d="m507.878906 133.925781h-503.757812c-2.277344 0-4.121094-1.84375-4.121094-4.121093v-22.664063c0-2.277344 1.84375-4.121094 4.121094-4.121094h503.757812c2.277344 0 4.121094 1.84375 4.121094 4.121094v22.664063c0 2.277343-1.84375 4.121093-4.121094 4.121093zm0 0" fill="#fff0d0"/><path d="m507.878906 103.019531h-30.90625c2.277344 0 4.121094 1.84375 4.121094 4.121094v22.664063c0 2.277343-1.84375 4.121093-4.121094 4.121093h30.90625c2.277344 0 4.121094-1.84375 4.121094-4.121093v-22.664063c0-2.277344-1.84375-4.121094-4.121094-4.121094zm0 0" fill="#edcfb2"/></svg>