<svg xmlns="http://www.w3.org/2000/svg" viewBox="0 0 512 512">
  <path fill="#bee86e" d="M490.711 264.752c-17.927 42.708-75.55 146.167-231.535 214.019-7.165 3.117-14.407-4.47-10.829-11.416 21.42-41.588 84.89-140.671 230.832-213.22 6.933-3.447 14.528 3.478 11.532 10.617z"/>
  <path fill="#96be4b" d="M256 512c-9.207 0-16.671-7.464-16.671-16.671V320.288h33.341v175.041C272.671 504.536 265.207 512 256 512z"/>
  <path fill="#ffa0a0" d="M306.012 61.893c-19.818-28.607-35.303-48.548-43.515-58.769-3.346-4.165-9.648-4.165-12.994 0-8.211 10.221-23.697 30.163-43.515 58.769l25.006 58.347h58.347l16.671-58.347z"/>
  <path fill="#ff8087" d="M227.552 145.706c29.172-41.793 72.775-86.881 90.566-104.714 3.988-3.997 10.669-2.991 13.265 2.022 14.488 27.976 53.829 109.075 53.829 164.839 0 71.302-57.802 129.105-129.105 129.105-54.354.001-103.465-83.931-28.555-191.252z"/>
  <path fill="#e6646e" d="M284.555 145.706c-29.172-41.793-72.775-86.881-90.566-104.714-3.988-3.997-10.669-2.991-13.265 2.022-14.488 27.976-53.829 109.075-53.829 164.839 0 71.302 57.802 129.105 129.105 129.105 54.354.001 103.465-83.931 28.555-191.252z"/>
  <path fill="#afd755" d="M21.289 264.752c17.927 42.708 75.55 146.167 231.535 214.019 7.165 3.117 14.407-4.47 10.829-11.416-21.42-41.588-84.89-140.671-230.832-213.22-6.933-3.447-14.528 3.478-11.532 10.617z"/>
</svg>
