<?xml version="1.0" encoding="iso-8859-1"?>
<!-- Generator: Adobe Illustrator 19.0.0, SVG Export Plug-In . SVG Version: 6.00 Build 0)  -->
<svg version="1.1" id="Capa_1" xmlns="http://www.w3.org/2000/svg" xmlns:xlink="http://www.w3.org/1999/xlink" x="0px" y="0px"
	 viewBox="0 0 512 512" style="enable-background:new 0 0 512 512;" xml:space="preserve">
<path style="fill:#DB976A;" d="M302.401,510.353c-6.878,3.017-14.895,1.834-20.552-3.105c-15.62-13.638-31.701-40.905-36.557-82.696
	c-4.211-36.24-3.857-69.642-3.84-71.046l20.92,0.201c0,0,4.796,82.643,46.046,125.161
	C317.919,488.661,314.896,504.873,302.401,510.353L302.401,510.353z"/>
<path style="fill:#D18754;" d="M308.419,478.869c-41.25-42.518-46.046-125.161-46.046-125.161l-10.437-0.1
	c0,0-4.023,97.22,50.466,156.746C314.896,504.873,317.919,488.661,308.419,478.869z"/>
<path id="SVGCleanerId_0" style="fill:#80C56E;" d="M460.04,246.804c5.791-4.832,17.721-16.056,24.645-31.501
	c14.461-32.259,20.992-72.991,20.992-72.991s-32.135-2.876-62.61,7.748c-15.854,5.527-31.259,14.707-41.457,29.846
	c-22.319,33.131-20.493-4.306-30.427-1.084c-16.373,5.31-29.658,29.914-45.833,58.274c0,0,2.967-36.189,12.868-56.211
	c43.527-88.028-8.537-32.604-9.418-60.425c0,0,4.045-61.97-7.737-57.943c-9.795,3.348-23.512,20.804-29.214,5.208
	C270.134,8.337,256.09,0,256.09,0h-0.179c0,0-14.044,8.337-35.759,67.724c-5.702,15.596-19.419-1.86-29.215-5.208
	c-11.782-4.027-7.737,57.943-7.737,57.943c-0.88,27.822-52.944-27.602-9.418,60.425c9.9,20.022,12.868,56.211,12.868,56.211
	c-16.175-28.36-29.459-52.964-45.833-58.274c-9.935-3.222-8.109,34.215-30.427,1.084c-10.198-15.139-25.603-24.319-41.457-29.846
	c-30.475-10.624-62.61-7.748-62.61-7.748s6.531,40.732,20.992,72.991c6.924,15.445,18.854,26.67,24.645,31.501
	c3.468,2.894,4.465,7.896,2.161,11.782c-5.657,9.543-28.138,4.481-26.445,12.341c2.157,10.011,22.416,36.592,40.815,48.4
	c36.3,23.297,49.297,24.748,49.297,24.748L57.974,374.2c0,0-2.486,20.523,85.827,20.523c9.366,0,5.011,30.098,14.967,29.274
	c50.162-4.155,86.035-31.932,97.232-41.704c11.197,9.772,47.071,37.549,97.232,41.704c9.956,0.825,5.601-29.274,14.967-29.274
	c88.313,0,85.827-20.523,85.827-20.523l-59.814-30.124c0,0,12.997-1.451,49.297-24.748c18.399-11.808,38.659-38.39,40.815-48.4
	c1.693-7.861-20.788-2.798-26.445-12.341C455.575,254.701,456.572,249.698,460.04,246.804z"/>
<g>
	<path id="SVGCleanerId_0_1_" style="fill:#80C56E;" d="M460.04,246.804c5.791-4.832,17.721-16.056,24.645-31.501
		c14.461-32.259,20.992-72.991,20.992-72.991s-32.135-2.876-62.61,7.748c-15.854,5.527-31.259,14.707-41.457,29.846
		c-22.319,33.131-20.493-4.306-30.427-1.084c-16.373,5.31-29.658,29.914-45.833,58.274c0,0,2.967-36.189,12.868-56.211
		c43.527-88.028-8.537-32.604-9.418-60.425c0,0,4.045-61.97-7.737-57.943c-9.795,3.348-23.512,20.804-29.214,5.208
		C270.134,8.337,256.09,0,256.09,0h-0.179c0,0-14.044,8.337-35.759,67.724c-5.702,15.596-19.419-1.86-29.215-5.208
		c-11.782-4.027-7.737,57.943-7.737,57.943c-0.88,27.822-52.944-27.602-9.418,60.425c9.9,20.022,12.868,56.211,12.868,56.211
		c-16.175-28.36-29.459-52.964-45.833-58.274c-9.935-3.222-8.109,34.215-30.427,1.084c-10.198-15.139-25.603-24.319-41.457-29.846
		c-30.475-10.624-62.61-7.748-62.61-7.748s6.531,40.732,20.992,72.991c6.924,15.445,18.854,26.67,24.645,31.501
		c3.468,2.894,4.465,7.896,2.161,11.782c-5.657,9.543-28.138,4.481-26.445,12.341c2.157,10.011,22.416,36.592,40.815,48.4
		c36.3,23.297,49.297,24.748,49.297,24.748L57.974,374.2c0,0-2.486,20.523,85.827,20.523c9.366,0,5.011,30.098,14.967,29.274
		c50.162-4.155,86.035-31.932,97.232-41.704c11.197,9.772,47.071,37.549,97.232,41.704c9.956,0.825,5.601-29.274,14.967-29.274
		c88.313,0,85.827-20.523,85.827-20.523l-59.814-30.124c0,0,12.997-1.451,49.297-24.748c18.399-11.808,38.659-38.39,40.815-48.4
		c1.693-7.861-20.788-2.798-26.445-12.341C455.575,254.701,456.572,249.698,460.04,246.804z"/>
</g>
<path style="fill:#4D984E;" d="M496.505,452.447c-1.967,0-1.97,3.057,0,3.057C498.472,455.504,498.476,452.447,496.505,452.447z"/>
<g>
	<path style="fill:#66AD66;" d="M121.225,261.018c47.419,60.375,104.348,72.993,129.739,83.824L255.91,0
		c0,0-14.044,8.337-35.759,67.725c-5.702,15.596-19.419-1.86-29.214-5.208c-11.782-4.027-7.737,57.943-7.737,57.943
		c-0.88,27.822-52.944-27.603-9.418,60.425c9.9,20.022,12.868,56.211,12.868,56.211c-16.175-28.36-29.459-52.964-45.833-58.274
		c-9.935-3.222-8.109,34.215-30.427,1.084c-10.198-15.139-25.603-24.319-41.457-29.846c-30.475-10.624-62.61-7.749-62.61-7.749
		S79.512,207.909,121.225,261.018z"/>
	<path style="fill:#66AD66;" d="M460.04,246.804c5.791-4.832,17.721-16.056,24.645-31.501
		c14.461-32.259,20.992-72.991,20.992-72.991s-75.413,66.47-118.214,118.706c-36.824,44.94-70.073,73.925-131.463,85.936v35.339
		c11.197,9.772,47.071,37.549,97.232,41.704c9.956,0.825,5.601-29.274,14.967-29.274c88.313,0,85.827-20.523,85.827-20.523
		l-59.814-30.124c0,0,12.997-1.451,49.297-24.748c18.399-11.808,38.659-38.39,40.815-48.4c1.693-7.86-20.788-2.798-26.445-12.341
		C455.576,254.701,456.572,249.698,460.04,246.804z"/>
</g>
<path style="fill:#4D984E;" d="M421.785,288.749c-0.239-0.146-1.153-0.527-4.19-0.527c-5.619,0-15.066,1.255-23.401,2.363
	c-7.059,0.938-13.156,1.749-16.285,1.749c-0.27,0-0.517-0.006-0.74-0.019l-2.248-0.123l1.576-1.607
	c6.174-6.294,16.646-20.44,26.681-36.038c11.042-17.165,15.139-25.965,15.42-28.283c-4.04,1.759-21.561,21.49-33.315,34.728
	c-7.971,8.977-15.499,17.455-20.241,22.221l-1.196,1.201l-0.501-1.619c-1.911-6.182-2.296-16.736-2.635-26.048
	c-0.269-7.375-0.636-17.445-1.999-18.471c-0.361,0.188-1.399,1.247-2.869,4.511c-4.111,9.126-10.44,34.55-2.472,50.646l0.341,0.688
	l-0.568,0.518c-17.374,15.829-33.384,26.434-51.912,34.385l-1.075,0.461l-0.31-1.128c-1.757-6.388-2.144-19.333-2.518-31.852
	c-0.317-10.609-0.711-23.738-2.15-25.666c-3.643,2.65-13.842,42.313-7.688,62.403l0.291,0.948l-0.94,0.316
	c-7.092,2.386-14.634,4.511-23.055,6.493l-1.252,0.295v-92.537l0.539-0.288c24.619-13.137,38.172-40.103,40.878-51.105
	c0.655-2.661,0.561-3.892,0.434-4.272c-1.477,0.211-5.824,5.273-10.032,10.171c-7.559,8.8-17.91,20.853-30.232,29.141l-1.588,1.068
	v-88.703l0.526-0.291c18.42-10.183,28.854-31.897,30.348-41.259c0.403-2.527-0.025-3.13-0.002-3.13l0,0
	c-0.029-0.013-0.069-0.019-0.118-0.019c-1.758,0-6.409,5.146-10.907,10.123c-5.142,5.69-11.542,12.77-18.213,17.81l-1.535,1.159
	l-0.097-1.921c-1.485-29.303-4.259-61.471-6.626-66.181c-2.366,4.709-5.14,36.864-6.626,66.156l-0.098,1.927l-1.536-1.166
	c-6.539-4.965-12.909-11.989-18.026-17.634c-4.579-5.051-9.315-10.273-11.093-10.273c-0.02,0-0.039,0.001-0.053,0.001
	c-0.014,0-0.023-0.001-0.022-0.006c-0.05,0.072-0.431,0.724-0.044,3.154c1.493,9.363,11.928,31.076,30.347,41.259l0.526,0.291
	v88.692l-1.589-1.072c-12.157-8.204-22.514-20.223-30.077-28.997c-4.292-4.981-8.728-10.128-10.18-10.31
	c-0.13,0.366-0.231,1.596,0.43,4.283c2.706,11.002,16.258,37.968,40.877,51.105l0.539,0.288v92.537L248.032,341
	c-8.421-1.982-15.963-4.106-23.054-6.493l-0.94-0.316l0.291-0.948c6.152-20.086-4.045-59.752-7.687-62.403
	c-1.438,1.926-1.828,15.032-2.143,25.623c-0.373,12.535-0.759,25.496-2.524,31.898l-0.311,1.127l-1.074-0.461
	c-18.53-7.953-34.541-18.559-51.914-34.387l-0.568-0.518l0.341-0.688c7.97-16.101,1.643-41.523-2.467-50.648
	c-1.49-3.309-2.535-4.349-2.846-4.511c-1.383,1.065-1.753,11.114-2.023,18.48c-0.342,9.309-0.729,19.861-2.64,26.042l-0.501,1.619
	l-1.196-1.201c-4.166-4.187-10.671-11.254-17.557-18.737c-12.3-13.364-32.591-35.409-36.906-37.088
	c0.587,6.149,28.735,48.652,43.078,63.269l1.579,1.608l-2.251,0.122c-0.214,0.012-0.452,0.018-0.711,0.018
	c-3.095,0-9.197-0.819-16.263-1.767c-8.403-1.129-17.926-2.407-23.566-2.407c-3.107,0-3.969,0.403-4.148,0.498
	c0.831,2.999,24.124,15.679,47.043,15.679c3.819,0,7.412-0.37,10.681-1.1l0.52-0.116l0.392,0.36
	c6.226,5.722,12.141,10.683,18.083,15.164c11.475,8.654,23.292,15.64,36.129,21.355l1.561,0.695l-1.354,1.043
	c-2.929,2.257-13.137,5.661-23.944,9.264c-9.614,3.206-23.948,7.986-25.831,10.131c1.064,0.511,4.795,1.173,11.812,1.173
	c17.918,0,46.573-4.162,52.077-15.629l0.395-0.822l0.86,0.301c9.184,3.213,19.007,5.982,30.033,8.466l0.795,0.179v32.927
	c2.771-2.147,5.028-4.033,6.715-5.505c1.649,1.439,3.847,3.276,6.534,5.363v-32.785l0.795-0.179
	c11.025-2.484,20.85-5.254,30.033-8.466l0.604-0.211l0.453,0.453c10.775,10.774,39.095,15.622,55.764,15.622c0,0,0.001,0,0.002,0
	c5.646,0,7.647-0.578,8.292-0.865c-1.709-1.645-11.753-4.702-19.908-7.184c-16.143-4.913-27.75-8.686-30.079-12.514l-0.603-0.989
	l1.058-0.471c12.834-5.714,24.649-12.699,36.122-21.352c5.94-4.48,11.856-9.441,18.083-15.163l0.383-0.351l0.51,0.103
	c3.279,0.665,6.839,1.002,10.582,1.002C397.706,304.304,420.934,291.752,421.785,288.749z"/>
<g>
</g>
<g>
</g>
<g>
</g>
<g>
</g>
<g>
</g>
<g>
</g>
<g>
</g>
<g>
</g>
<g>
</g>
<g>
</g>
<g>
</g>
<g>
</g>
<g>
</g>
<g>
</g>
<g>
</g>
</svg>
