<svg xmlns="http://www.w3.org/2000/svg" viewBox="0 0 512 512">
  <path fill="#80c56e" d="M207.876 308.831c35.171 5.389 48.123 1.347 48.123 1.347s12.953 4.042 48.123-1.347c35.171-5.389 33.768-59.281 33.768-59.281s-12.133 13.293-38.606 18.323C272.813 272.904 256 302.364 256 302.364s-16.813-29.461-43.286-34.491-38.606-18.323-38.606-18.323-1.402 53.892 33.768 59.281z"/>
  <g fill="#66ad66">
    <path d="M337.892 249.551v.025c-.301 1.033-14.52 48.644-81.862 52.787v7.826c.631.187 13.794 3.899 48.093-1.356 35.171-5.391 33.769-59.282 33.769-59.282zM256 302.364s-16.813-29.461-43.286-34.491-38.606-18.323-38.606-18.323 13.784 48.639 81.892 52.814z"/>
  </g>
  <path fill="#80c56e" d="M207.876 218.567c35.171 5.389 48.123 1.347 48.123 1.347s12.953 4.042 48.123-1.347c35.171-5.389 33.768-59.281 33.768-59.281s-12.133 13.293-38.606 18.323C272.813 182.639 256 212.1 256 212.1s-16.813-29.461-43.286-34.491-38.606-18.323-38.606-18.323-1.402 53.892 33.768 59.281z"/>
  <path fill="#c4c9f2" d="M346.993 45.506c-10.557-11.213-71.72 10.259-89.395 24.667s-19.321 50.235-12.012 57.998 45.694 10.958 63.368-3.451c17.675-14.407 48.597-68 38.039-79.214z"/>
  <path fill="#b0b8ea" d="M308.954 124.721c17.675-14.408 48.596-68.001 38.039-79.215l-101.407 82.665c7.309 7.764 45.694 10.958 63.368-3.45z"/>
  <path fill="#c4c9f2" d="M165.007 45.506c10.557-11.213 71.72 10.259 89.395 24.667s19.321 50.235 12.012 57.998-45.694 10.958-63.368-3.451-48.597-68-38.039-79.214z"/>
  <path fill="#b0b8ea" d="M254.402 70.173c-17.675-14.408-78.838-35.881-89.395-24.667l101.407 82.665c7.309-7.762 5.662-43.589-12.012-57.998z"/>
  <g fill="#66ad66">
    <path d="M337.892 159.286v.025c-.301 1.033-14.52 48.645-81.862 52.787v7.826c.631.187 13.794 3.899 48.093-1.356 35.171-5.39 33.769-59.282 33.769-59.282zM256 212.1s-16.813-29.461-43.286-34.491-38.606-18.323-38.606-18.323S187.892 207.925 256 212.1z"/>
  </g>
  <path fill="#4d984e" d="M256 126.512c-4.267 0-7.726 3.459-7.726 7.726v282.773c0 4.267 3.459 7.726 7.726 7.726 4.268 0 7.726-3.459 7.726-7.726V134.238c0-4.267-3.458-7.726-7.726-7.726z"/>
  <path fill="#a7aeee" d="M255.741 0c-17.705 0-43.063 65.806-43.063 91.068s30.806 53.87 43.063 53.87c12.257 0 43.063-28.608 43.063-53.87S273.446 0 255.741 0z"/>
  <path fill="#fec37d" d="M311.159 512H200.841c-4.538 0-8.447-3.199-9.345-7.647l-29.227-144.792h187.462l-29.227 144.792c-.899 4.448-4.807 7.647-9.345 7.647z"/>
  <path fill="#f9ae5d" d="M299.767 359.561L270.54 504.353c-.898 4.448-4.807 7.647-9.345 7.647h49.964c4.538 0 8.447-3.199 9.345-7.647l29.227-144.792h-49.964z"/>
  <path fill="#f2a559" d="M363.947 385.357H148.053c-2.754 0-4.986-2.232-4.986-4.986v-25.84c0-2.754 2.232-4.986 4.986-4.986h215.895c2.754 0 4.986 2.232 4.986 4.986v25.84c-.001 2.754-2.233 4.986-4.987 4.986z"/>
  <path fill="#ea8f3d" d="M363.947 349.545h-47.371v35.812h47.371c2.754 0 4.986-2.232 4.986-4.986v-25.84c0-2.753-2.232-4.986-4.986-4.986z"/>
  <path fill="#f2a559" d="M335.712 429.011H176.288l3.119 15.452h153.185z"/>
  <path fill="#ea8f3d" d="M285.747 429.011l-3.118 15.452h49.963l.623-3.079 2.497-12.373z"/>
  <path fill="#8c99e5" d="M298.803 91.068C298.803 65.806 273.446 0 255.741 0v144.938c12.256 0 43.062-28.608 43.062-53.87z"/>
</svg>
