<svg xmlns="http://www.w3.org/2000/svg" viewBox="0 0 512 512">
  <path fill="#ffdc64" d="M289.372 84.201l-27.64-80.114c-1.88-5.448-9.584-5.448-11.464 0l-27.64 80.114-1.541.306-56.195-63.438c-3.821-4.314-10.94-1.365-10.591 4.387l5.122 84.593-.105 1.458-77.395-37.689c-5.181-2.523-10.629 2.925-8.106 8.106l37.689 77.395-.124.185-85.927-5.203c-5.752-.348-8.701 6.77-4.387 10.591l64.438 57.081-.044.219-81.376 28.077c-5.448 1.88-5.448 9.584 0 11.464l81.377 28.076.044.219-64.438 57.081c-4.314 3.821-1.365 10.94 4.387 10.591l85.927-5.203.124.185-37.689 77.395c-2.523 5.181 2.925 10.629 8.106 8.106l77.395-37.689.185.124-5.203 85.927c-.348 5.752 6.77 8.701 10.591 4.387l57.081-64.438.219.043 28.076 81.377c1.88 5.448 9.584 5.448 11.464 0l28.076-81.377.219-.043 57.081 64.438c3.821 4.314 10.94 1.365 10.591-4.387l-5.203-85.927 1.387.461 76.194 37.104c5.181 2.523 10.629-2.925 8.106-8.106l-37.104-76.194.873-1.306 84.593 5.122c5.752.348 8.701-6.77 4.387-10.591l-63.438-56.195.306-1.541 80.114-27.64c5.448-1.88 5.448-9.584 0-11.464l-80.114-27.64-.306-1.541 63.438-56.195c4.314-3.821 1.365-10.94-4.387-10.591l-84.593 5.122-.873-1.306 37.104-76.194c2.523-5.181-2.925-10.629-8.106-8.106l-76.194 37.104-1.306-.873 5.122-84.593c.348-5.752-6.77-8.701-10.591-4.387l-56.195 63.438"/>
  <circle cx="256.86" cy="254.711" r="172.38" fill="#ffc850"/>
  <path fill="#ebaf4b" d="M313.394 370.557c-95.205 0-172.384-77.179-172.384-172.384 0-33.117 9.357-64.04 25.545-90.305-49.242 30.348-82.079 84.751-82.079 146.839 0 95.205 77.179 172.384 172.384 172.384 62.088 0 116.491-32.838 146.839-82.079-26.265 16.188-57.188 25.545-90.305 25.545z"/>
  <g fill="#dc9b41">
    <path d="M256 307.974c-15.201 0-28.897-9.212-34.086-22.916-1.696-4.475.558-9.474 5.033-11.175 4.466-1.692 9.47.567 11.166 5.033 2.656 7.021 9.846 11.733 17.887 11.733s15.231-4.712 17.887-11.733c1.696-4.466 6.683-6.725 11.166-5.033 4.475 1.7 6.729 6.7 5.033 11.175-5.189 13.704-18.885 22.916-34.086 22.916zM256 377.272c-9.424 0-18.686-.812-27.53-2.411-4.708-.854-7.833-5.363-6.979-10.075.854-4.695 5.38-7.833 10.066-6.979 15.658 2.842 33.228 2.842 48.886 0 4.691-.854 9.212 2.284 10.066 6.979.854 4.712-2.271 9.22-6.979 10.075-8.844 1.599-18.106 2.411-27.53 2.411z"/>
  </g>
  <path fill="#d7823c" d="M322.151 325.079l-6.497-12.452c-2.212-4.238-7.457-5.888-11.686-3.671-3.311 1.729-4.967 5.286-4.515 8.786-10.969 4.774-26.759 7.557-43.453 7.557s-32.484-2.784-43.453-7.557c.452-3.5-1.204-7.057-4.515-8.786-4.225-2.208-9.466-.567-11.686 3.671l-6.497 12.452c-2.212 4.246-.567 9.474 3.676 11.691 1.277.668 2.648.981 3.997.981 3.025 0 5.918-1.611 7.506-4.397 13.313 5.924 31.483 9.269 50.972 9.269s37.659-3.346 50.972-9.269c1.588 2.785 4.482 4.397 7.506 4.397 1.349 0 2.72-.313 3.997-.981 4.242-2.217 5.888-7.445 3.676-11.691z"/>
  <path fill="#4b3f4e" d="M191.034 256.001c-11.96 0-21.656-9.695-21.656-21.655v-8.662c0-11.96 9.695-21.655 21.655-21.655s21.655 9.695 21.655 21.655v8.662c.001 11.96-9.694 21.655-21.654 21.655z"/>
  <path fill="#5d5360" d="M191.034 204.028c-1.484 0-2.931.152-4.331.437v21.219c0 7.176 5.817 12.993 12.993 12.993s12.993-5.817 12.993-12.993c0-11.961-9.695-21.656-21.655-21.656z"/>
  <circle cx="195.37" cy="221.351" r="8.662" fill="#fff"/>
  <path fill="#4b3f4e" d="M320.966 256.001c-11.96 0-21.655-9.695-21.655-21.655v-8.662c0-11.96 9.695-21.655 21.655-21.655s21.655 9.695 21.655 21.655v8.662c.001 11.96-9.695 21.655-21.655 21.655z"/>
  <path fill="#5d5360" d="M320.966 204.028c-1.484 0-2.931.152-4.331.437v21.219c0 7.176 5.817 12.993 12.993 12.993s12.993-5.817 12.993-12.993c.001-11.961-9.694-21.656-21.655-21.656z"/>
  <circle cx="325.3" cy="221.351" r="8.662" fill="#fff"/>
</svg>
