<svg id="Capa_1" enable-background="new 0 0 512 512" height="512" viewBox="0 0 512 512" width="512" xmlns="http://www.w3.org/2000/svg"><g><path d="m372.201 95.264 5.642-18.347c3.203-10.416-4.586-20.96-15.483-20.96h-212.72c-10.898 0-18.687 10.544-15.483 20.96l5.682 18.479c2.652 8.625-.947 17.909-8.669 22.578-69.987 42.318-116.779 119.135-116.779 206.888 0 66.536 26.894 126.787 70.405 170.479 10.662 10.705 25.194 16.659 40.303 16.659h261.799c15.206 0 29.784-6.069 40.501-16.856 43.396-43.675 70.209-103.845 70.21-170.281 0-88-46.693-164.773-116.719-207.009-7.734-4.665-11.343-13.957-8.689-22.59z" fill="#efecef"/><g><path d="m406.814 411.892c-8.384 8.384-18.934 13.29-29.849 14.712-5.629.743-11.35.552-16.93-.562-3.274-16.398 1.441-34.071 14.15-46.779 9.547-9.547 21.894-14.585 34.393-15.108 4.143-.181 8.306.142 12.386.958 3.274 16.392-1.441 34.07-14.15 46.779z" fill="#8bc852"/><path d="m408.578 364.155c-20.365 2.174-10.481 41.742-31.613 62.449-5.629.743-11.35.552-16.93-.562-3.274-16.398 1.441-34.071 14.15-46.779 9.548-9.548 21.895-14.585 34.393-15.108z" fill="#7dbe3b"/><path d="m360.035 426.042c-2.536.503-5.101.821-7.676.943-14.067.679-28.359-4.349-39.103-15.093-12.714-12.709-17.429-30.386-14.15-46.779 7.818-1.564 15.924-1.309 23.649.767 8.472 2.272 16.481 6.733 23.131 13.383 12.708 12.708 17.423 30.381 14.149 46.779z" fill="#8bc852"/><path d="m341.097 417.999c3.479 3.484 7.261 6.479 11.262 8.985-14.067.679-28.359-4.349-39.103-15.093-12.714-12.709-17.429-30.386-14.15-46.779 7.818-1.564 15.924-1.309 23.649.767-2.018 18.582 4.094 37.877 18.342 52.12z" fill="#7dbe3b"/><ellipse cx="360.035" cy="382.957" fill="#8bc852" rx="23.073" ry="43.085"/><path d="m347.247 382.956c0 17.976 5.082 33.807 12.787 43.085-13.911-9.279-23.072-25.109-23.072-43.085s9.161-33.807 23.072-43.085c-7.705 9.279-12.787 25.11-12.787 43.085z" fill="#7dbe3b"/></g><path d="m214.291 76.918 1.948 18.474c.911 8.63-.325 17.909-2.964 22.58-23.962 42.322-39.976 119.142-39.976 206.895 0 66.535 9.206 126.787 24.099 170.47 3.645 10.714 8.619 16.663 13.793 16.663h-86.089c-15.113 0-29.639-5.949-40.3-16.663-43.516-43.683-70.41-103.935-70.41-170.47 0-87.754 46.794-164.574 116.785-206.895 7.719-4.671 11.321-13.95 8.661-22.58l-5.676-18.474c-3.205-10.421 4.587-20.957 15.479-20.957h69.949c-3.728 0-6.399 10.536-5.299 20.957z" fill="#e2dfe2"/><g><path d="m265.719 323.647c-14.758 14.758-33.326 23.393-52.539 25.896-9.908 1.307-19.979.972-29.8-.989-5.762-28.863 2.537-59.97 24.907-82.34 16.805-16.805 38.538-25.672 60.538-26.592 7.293-.318 14.621.249 21.802 1.686 5.761 28.854-2.539 59.97-24.908 82.339z" fill="#8bc852"/><path d="m268.824 239.622c-35.846 3.827-18.448 73.473-55.644 109.921-9.908 1.307-19.979.972-29.8-.989-5.762-28.863 2.537-59.97 24.907-82.34 16.804-16.805 38.537-25.672 60.537-26.592z" fill="#7dbe3b"/><path d="m183.379 348.554c-4.464.886-8.979 1.445-13.511 1.66-24.76 1.195-49.916-7.654-68.829-26.566-22.378-22.37-30.677-53.486-24.907-82.34 13.761-2.752 28.029-2.305 41.626 1.35 14.913 3.999 29.009 11.851 40.714 23.556 22.37 22.369 30.669 53.477 24.907 82.34z" fill="#8bc852"/><path d="m150.044 334.398c6.124 6.132 12.78 11.404 19.824 15.816-24.76 1.195-49.916-7.654-68.829-26.566-22.378-22.37-30.677-53.486-24.907-82.34 13.761-2.752 28.029-2.305 41.626 1.35-3.551 32.707 7.208 66.67 32.286 91.74z" fill="#7dbe3b"/><ellipse cx="183.378" cy="272.716" fill="#8bc852" rx="40.612" ry="75.837"/><path d="m160.87 272.716c0 31.641 8.944 59.506 22.507 75.838-24.485-16.332-40.611-44.197-40.611-75.838s16.126-59.506 40.611-75.838c-13.563 16.332-22.507 44.197-22.507 75.838z" fill="#7dbe3b"/></g><path d="m457.125 386.24c-9.834 32.383-27.502 62.084-52.009 86.759-4.797 4.818-11.426 7.582-18.213 7.582h-261.806c-6.776 0-13.353-2.702-18.035-7.415-24.193-24.287-41.725-53.454-51.685-85.272 32.927-28.874 75.857-45.443 118.21-42.688 28.853 1.885 57.434 12.725 82.412 34.75 59.582 52.553 144.802 59.989 201.126 6.284z" fill="#eab14d"/><path d="m192.753 480.581h-67.656c-6.776 0-13.353-2.702-18.035-7.415-24.193-24.287-41.725-53.454-51.685-85.272 32.927-28.874 75.857-45.443 118.21-42.688 1.467 51.381 8.431 98.185 19.166 135.375z" fill="#e49542"/><path d="m352.394 18.389-5.202 37.571-8.272 59.678c-1.762 12.733-12.64 22.211-25.487 22.211h-114.866c-12.846 0-23.725-9.478-25.487-22.211l-8.272-59.678-5.202-37.571c-1.349-9.725 6.202-18.389 16.019-18.389h160.75c9.817 0 17.368 8.664 16.019 18.389z" fill="#f4dd45"/><path d="m347.192 55.959-8.272 59.678c-1.762 12.733-12.64 22.211-25.487 22.211h-114.866c-12.846 0-23.725-9.478-25.487-22.211l-8.272-59.678z" fill="#ecc32e"/><path d="m233.594 137.849h-35.016c-12.846 0-23.735-9.478-25.487-22.2l-8.272-59.689-5.213-37.571c-1.349-9.725 6.202-18.389 16.019-18.389h48.995c-3.832 0-6.768 8.664-6.253 18.389l2.029 37.571 3.235 59.689c.691 12.722 4.945 22.2 9.963 22.2z" fill="#ecc32e"/><g fill="#eab14d"><path d="m144.848 404.887c-4.268 0-7.726-3.459-7.726-7.726v-.524c0-4.267 3.459-7.726 7.726-7.726 4.268 0 7.726 3.459 7.726 7.726v.524c0 4.266-3.458 7.726-7.726 7.726z"/><path d="m165.002 416.329c-4.268 0-7.726-3.459-7.726-7.726v-.524c0-4.267 3.459-7.726 7.726-7.726s7.726 3.459 7.726 7.726v.524c0 4.266-3.458 7.726-7.726 7.726z"/><path d="m144.848 428.018c-4.268 0-7.726-3.459-7.726-7.726v-.524c0-4.267 3.459-7.726 7.726-7.726 4.268 0 7.726 3.459 7.726 7.726v.524c0 4.266-3.458 7.726-7.726 7.726z"/></g><g fill="#e49542"><path d="m303.362 443.676c-3.095 0-6.015-1.872-7.203-4.929-1.546-3.977.425-8.455 4.402-10l.488-.19c3.978-1.545 8.455.426 10 4.402 1.546 3.977-.425 8.455-4.402 10.001l-.488.19c-.92.356-1.866.526-2.797.526z"/><path d="m299.996 466.606c-3.095 0-6.015-1.872-7.203-4.929-1.546-3.977.425-8.455 4.402-10l.488-.19c3.979-1.545 8.456.426 10 4.402 1.546 3.977-.425 8.455-4.402 10.001l-.488.19c-.92.356-1.866.526-2.797.526z"/><path d="m281.802 452.053c-3.095 0-6.015-1.872-7.203-4.929-1.546-3.977.425-8.455 4.402-10l.488-.19c3.979-1.545 8.455.426 10 4.402 1.546 3.977-.425 8.455-4.402 10.001l-.488.19c-.92.356-1.867.526-2.797.526z"/></g><g fill="#f4dd45"><path d="m290.605 93.909c-3.095 0-6.015-1.872-7.203-4.929-1.546-3.977.425-8.455 4.402-10.001l.488-.19c3.979-1.545 8.455.426 10 4.402 1.546 3.977-.425 8.455-4.402 10.001l-.488.19c-.92.357-1.867.527-2.797.527z"/><path d="m287.237 116.839c-3.097 0-6.018-1.874-7.205-4.934-1.543-3.978.431-8.454 4.409-9.997l.489-.19c3.978-1.544 8.455.432 9.997 4.409 1.543 3.978-.431 8.454-4.409 9.997l-.489.19c-.917.356-1.863.525-2.792.525z"/><path d="m269.043 102.286c-3.095 0-6.015-1.872-7.203-4.929-1.546-3.977.425-8.455 4.402-10.001l.488-.19c3.979-1.546 8.455.425 10 4.402 1.546 3.977-.425 8.455-4.402 10.001l-.488.19c-.919.357-1.866.527-2.797.527z"/></g><path d="m233.594 137.849h-35.016c-12.846 0-23.735-9.478-25.487-22.2l-8.272-59.689h55.578l3.235 59.689c.69 12.722 4.944 22.2 9.962 22.2z" fill="#e49542"/></g></svg>